<svg id="visual" viewBox="0 0 900 600" width="900" height="600" xmlns="http://www.w3.org/2000/svg" xmlns:xlink="http://www.w3.org/1999/xlink" version="1.1"><g stroke-width="1" stroke-linejoin="bevel"><path d="M421 336L338 365L366 387Z" fill="#00101c" stroke="#00101c"></path><path d="M421 336L295 263L338 365Z" fill="#15384f" stroke="#15384f"></path><path d="M486 422L504 317L421 336Z" fill="#1d4e6b" stroke="#1d4e6b"></path><path d="M421 336L437 205L295 263Z" fill="#112e42" stroke="#112e42"></path><path d="M366 387L486 422L421 336Z" fill="#00101c" stroke="#00101c"></path><path d="M504 317L437 205L421 336Z" fill="#00101c" stroke="#00101c"></path><path d="M437 205L265 232L295 263Z" fill="#0c2435" stroke="#0c2435"></path><path d="M295 263L217 269L338 365Z" fill="#1d4e6b" stroke="#1d4e6b"></path><path d="M305 533L394 503L366 387Z" fill="#1d4e6b" stroke="#1d4e6b"></path><path d="M366 387L394 503L486 422Z" fill="#277297" stroke="#277297"></path><path d="M305 533L366 387L227 494Z" fill="#205a7a" stroke="#205a7a"></path><path d="M265 232L217 269L295 263Z" fill="#246688" stroke="#246688"></path><path d="M592 236L522 227L504 317Z" fill="#0c2435" stroke="#0c2435"></path><path d="M504 317L522 227L437 205Z" fill="#277297" stroke="#277297"></path><path d="M565 498L566 407L486 422Z" fill="#1d4e6b" stroke="#1d4e6b"></path><path d="M486 422L566 407L504 317Z" fill="#19435d" stroke="#19435d"></path><path d="M227 494L366 387L338 365Z" fill="#246688" stroke="#246688"></path><path d="M161 371L227 494L338 365Z" fill="#19435d" stroke="#19435d"></path><path d="M217 269L161 371L338 365Z" fill="#19435d" stroke="#19435d"></path><path d="M394 503L497 534L486 422Z" fill="#246688" stroke="#246688"></path><path d="M430 600L497 534L394 503Z" fill="#277297" stroke="#277297"></path><path d="M638 271L592 236L504 317Z" fill="#1d4e6b" stroke="#1d4e6b"></path><path d="M471 90L360 88L437 205Z" fill="#205a7a" stroke="#205a7a"></path><path d="M303 81L206 173L265 232Z" fill="#19435d" stroke="#19435d"></path><path d="M265 232L206 173L217 269Z" fill="#205a7a" stroke="#205a7a"></path><path d="M217 269L138 230L161 371Z" fill="#1d4e6b" stroke="#1d4e6b"></path><path d="M497 534L565 498L486 422Z" fill="#246688" stroke="#246688"></path><path d="M566 407L638 271L504 317Z" fill="#1d4e6b" stroke="#1d4e6b"></path><path d="M471 90L437 205L522 227Z" fill="#0c2435" stroke="#0c2435"></path><path d="M437 205L360 88L265 232Z" fill="#112e42" stroke="#112e42"></path><path d="M276 600L430 600L305 533Z" fill="#246688" stroke="#246688"></path><path d="M305 533L430 600L394 503Z" fill="#081a28" stroke="#081a28"></path><path d="M497 534L586 600L565 498Z" fill="#19435d" stroke="#19435d"></path><path d="M206 173L138 230L217 269Z" fill="#205a7a" stroke="#205a7a"></path><path d="M66 274L114 402L161 371Z" fill="#15384f" stroke="#15384f"></path><path d="M161 371L114 402L227 494Z" fill="#112e42" stroke="#112e42"></path><path d="M581 100L471 90L522 227Z" fill="#297ea6" stroke="#297ea6"></path><path d="M688 370L638 271L566 407Z" fill="#081a28" stroke="#081a28"></path><path d="M592 236L581 100L522 227Z" fill="#0c2435" stroke="#0c2435"></path><path d="M360 88L303 81L265 232Z" fill="#277297" stroke="#277297"></path><path d="M206 173L102 108L138 230Z" fill="#15384f" stroke="#15384f"></path><path d="M326 0L303 81L360 88Z" fill="#1d4e6b" stroke="#1d4e6b"></path><path d="M171 600L276 600L227 494Z" fill="#0c2435" stroke="#0c2435"></path><path d="M227 494L276 600L305 533Z" fill="#1d4e6b" stroke="#1d4e6b"></path><path d="M430 600L491 600L497 534Z" fill="#15384f" stroke="#15384f"></path><path d="M303 81L222 85L206 173Z" fill="#19435d" stroke="#19435d"></path><path d="M114 402L117 513L227 494Z" fill="#081a28" stroke="#081a28"></path><path d="M674 461L688 370L566 407Z" fill="#297ea6" stroke="#297ea6"></path><path d="M674 461L566 407L565 498Z" fill="#19435d" stroke="#19435d"></path><path d="M681 132L592 236L712 181Z" fill="#19435d" stroke="#19435d"></path><path d="M681 132L581 100L592 236Z" fill="#0c2435" stroke="#0c2435"></path><path d="M0 165L66 274L138 230Z" fill="#081a28" stroke="#081a28"></path><path d="M138 230L66 274L161 371Z" fill="#15384f" stroke="#15384f"></path><path d="M114 402L0 411L117 513Z" fill="#0c2435" stroke="#0c2435"></path><path d="M586 600L674 461L565 498Z" fill="#246688" stroke="#246688"></path><path d="M117 513L171 600L227 494Z" fill="#277297" stroke="#277297"></path><path d="M491 600L586 600L497 534Z" fill="#112e42" stroke="#112e42"></path><path d="M478 0L382 0L471 90Z" fill="#297ea6" stroke="#297ea6"></path><path d="M471 90L382 0L360 88Z" fill="#246688" stroke="#246688"></path><path d="M303 81L218 0L222 85Z" fill="#297ea6" stroke="#297ea6"></path><path d="M382 0L326 0L360 88Z" fill="#00101c" stroke="#00101c"></path><path d="M568 0L478 0L471 90Z" fill="#1d4e6b" stroke="#1d4e6b"></path><path d="M139 0L102 108L222 85Z" fill="#0c2435" stroke="#0c2435"></path><path d="M222 85L102 108L206 173Z" fill="#081a28" stroke="#081a28"></path><path d="M761 268L739 273L804 401Z" fill="#15384f" stroke="#15384f"></path><path d="M688 370L739 273L638 271Z" fill="#0c2435" stroke="#0c2435"></path><path d="M712 181L592 236L638 271Z" fill="#205a7a" stroke="#205a7a"></path><path d="M581 100L568 0L471 90Z" fill="#15384f" stroke="#15384f"></path><path d="M739 273L712 181L638 271Z" fill="#19435d" stroke="#19435d"></path><path d="M117 513L100 600L171 600Z" fill="#081a28" stroke="#081a28"></path><path d="M0 529L100 600L117 513Z" fill="#277297" stroke="#277297"></path><path d="M0 165L0 328L66 274Z" fill="#00101c" stroke="#00101c"></path><path d="M66 274L0 328L114 402Z" fill="#277297" stroke="#277297"></path><path d="M326 0L218 0L303 81Z" fill="#112e42" stroke="#112e42"></path><path d="M0 328L0 411L114 402Z" fill="#19435d" stroke="#19435d"></path><path d="M804 401L739 273L688 370Z" fill="#205a7a" stroke="#205a7a"></path><path d="M739 273L761 268L712 181Z" fill="#246688" stroke="#246688"></path><path d="M708 0L568 0L581 100Z" fill="#081a28" stroke="#081a28"></path><path d="M102 108L0 165L138 230Z" fill="#00101c" stroke="#00101c"></path><path d="M0 96L0 165L102 108Z" fill="#081a28" stroke="#081a28"></path><path d="M218 0L139 0L222 85Z" fill="#112e42" stroke="#112e42"></path><path d="M0 411L0 529L117 513Z" fill="#15384f" stroke="#15384f"></path><path d="M674 461L804 401L688 370Z" fill="#112e42" stroke="#112e42"></path><path d="M835 481L804 401L674 461Z" fill="#081a28" stroke="#081a28"></path><path d="M586 600L735 600L674 461Z" fill="#277297" stroke="#277297"></path><path d="M0 0L0 96L102 108Z" fill="#0c2435" stroke="#0c2435"></path><path d="M0 529L0 600L100 600Z" fill="#19435d" stroke="#19435d"></path><path d="M712 181L790 126L681 132Z" fill="#081a28" stroke="#081a28"></path><path d="M681 132L708 0L581 100Z" fill="#0c2435" stroke="#0c2435"></path><path d="M837 220L790 126L712 181Z" fill="#297ea6" stroke="#297ea6"></path><path d="M837 220L712 181L761 268Z" fill="#205a7a" stroke="#205a7a"></path><path d="M900 296L837 220L761 268Z" fill="#081a28" stroke="#081a28"></path><path d="M790 126L708 0L681 132Z" fill="#246688" stroke="#246688"></path><path d="M735 600L835 481L674 461Z" fill="#246688" stroke="#246688"></path><path d="M804 401L900 296L761 268Z" fill="#00101c" stroke="#00101c"></path><path d="M780 600L835 481L735 600Z" fill="#205a7a" stroke="#205a7a"></path><path d="M139 0L0 0L102 108Z" fill="#081a28" stroke="#081a28"></path><path d="M900 507L900 367L835 481Z" fill="#297ea6" stroke="#297ea6"></path><path d="M835 481L900 367L804 401Z" fill="#19435d" stroke="#19435d"></path><path d="M900 367L900 296L804 401Z" fill="#297ea6" stroke="#297ea6"></path><path d="M837 220L900 176L790 126Z" fill="#297ea6" stroke="#297ea6"></path><path d="M900 600L900 507L835 481Z" fill="#297ea6" stroke="#297ea6"></path><path d="M900 296L900 176L837 220Z" fill="#19435d" stroke="#19435d"></path><path d="M790 126L818 0L708 0Z" fill="#0c2435" stroke="#0c2435"></path><path d="M900 72L818 0L790 126Z" fill="#1d4e6b" stroke="#1d4e6b"></path><path d="M780 600L900 600L835 481Z" fill="#205a7a" stroke="#205a7a"></path><path d="M900 176L900 72L790 126Z" fill="#277297" stroke="#277297"></path><path d="M900 72L900 0L818 0Z" fill="#297ea6" stroke="#297ea6"></path></g></svg>